<?xml version="1.0" encoding="utf-8"?>
<!-- Generator: Adobe Illustrator 15.1.0, SVG Export Plug-In . SVG Version: 6.00 Build 0)  -->
<!DOCTYPE svg PUBLIC "-//W3C//DTD SVG 1.1//EN" "http://www.w3.org/Graphics/SVG/1.1/DTD/svg11.dtd">
<svg version="1.1" xmlns="http://www.w3.org/2000/svg" xmlns:xlink="http://www.w3.org/1999/xlink" x="0px" y="0px"
	 width="473.649px" height="220.238px" viewBox="0 0 473.649 220.238" enable-background="new 0 0 473.649 220.238"
	 xml:space="preserve">
<g id="background">
</g>
<g id="Logo">
	<g>
		<g>
			<polygon fill="#F7CE58" points="74.22,54.541 74.22,68.313 92.798,68.313 122.506,30.939 			"/>
			<polygon fill="#F7CE58" points="70.616,48.039 71.172,48.311 95.167,36.582 101.885,11.62 81.421,30.976 71.172,0 60.922,30.976 
				40.458,11.62 47.177,36.582 			"/>
			<polygon fill="#F7CE58" points="68.124,68.313 68.124,54.541 19.838,30.939 49.545,68.313 			"/>
		</g>
		<path fill="#FFFFFF" d="M111.178,154.143l-6.923,14.298l7.09,14.643l-9.126,18.849c-1.719,3.549-5.376,5.842-9.319,5.842H78.617
			l39.493-81.558l10.385,21.448l-6.961,14.377l6.924,14.299l13.885-28.676l-28.908-59.701c-3.787-7.819-11.848-12.872-20.536-12.872
			H49.444c-8.688,0-16.75,5.053-20.536,12.873l-11.603,23.962l13.908,28.703l6.923-14.298l-6.979-14.414l8.969-18.521
			c1.718-3.548,5.376-5.841,9.318-5.841h13.964l-39.334,81.231l-10.227-21.122l7.142-14.749l-6.923-14.298L0,147.665l28.908,59.7
			c3.787,7.82,11.848,12.874,20.536,12.874h43.455c8.688,0,16.749-5.053,20.536-12.873l11.782-24.333L111.178,154.143z
			 M92.899,87.555c3.943,0,7.601,2.293,9.319,5.841l8.968,18.521l-10.227,21.121L78.935,87.555H92.899z M49.444,207.774
			c-3.942,0-7.6-2.293-9.319-5.842l-9.127-18.849l10.386-21.449l22.342,46.14H49.444z M48.308,147.336l22.864-47.217l22.864,47.217
			l-22.864,47.217L48.308,147.336z"/>
	</g>
	<g>
		<path fill="#FFFFFF" d="M234.133,155.624c-1.329,18.376-15.277,28.827-28.828,28.827c-13.442,0-25.027-2.653-29.871-21.374
			c-3.279-12.675,18.446-15.431,20.717-4.332c1.104,5.395,4.808,10.557,9.816,10.089c6.339-0.592,8.929-4.264,7.958-14.056
			c-1.323-9.951-2.146-20.854-2.052-29.784c-16.479-0.478-16.299-20.839-0.667-21.804c4.532-0.28,8.161-0.023,11.058,0.61
			c6.708-1.064,14.707,2.299,14.652,12.291C236.869,124.643,235.631,141.465,234.133,155.624z"/>
		<path fill="#FFFFFF" d="M285.295,156.192L285.295,156.192c-0.338,9.702-1.23,21.38-2.247,25.386
			c-1.31,5.167-7.701,6.384-9.979,1.735c-8.765,5.551-22.229,3.231-27.45-7.92l0.003-0.003c-0.096-0.193-0.183-0.392-0.253-0.601
			c-6.725-15.531-8.231-35.087-3.781-43.839c4.043-7.953,18.581-6.16,18.434,6.178c-0.108,9.022-2.871,19.11-3.305,29.361
			c0.244,6.007,3.087,7.53,6.398,6.79c2.644-0.592,7.217-1.095,4.446-19.382c-1.015-5.835-2.213-11.512-2.275-16.768
			c-0.147-12.338,14.391-14.131,18.434-6.178C286.48,136.383,286.947,145.979,285.295,156.192z"/>
		<path fill="#FFFFFF" d="M308.133,181.704c-1.677,4.712-11.55,5.56-13.116,0.378c-4.684-10.901-7.722-41.726-3.703-50.381
			c3.651-7.865,20.608-6.551,20.643,5.054C311.989,147.671,310.208,175.87,308.133,181.704z M291.259,115.264
			c0-5.245,4.253-9.498,9.498-9.498c5.246,0,9.498,4.252,9.498,9.498c0,5.246-4.252,9.498-9.498,9.498
			C295.512,124.762,291.259,120.51,291.259,115.264z"/>
		<path fill="#FFFFFF" d="M363.116,167.04c-3.416,12.903-13.157,22.031-24.418,21.621c-13.788-0.502-24.633-15.109-24.222-32.627
			c0.41-17.518,11.921-31.313,25.709-30.811c11.993,0.437,20.604,7.234,22.672,21.649c0.95,8.119-21.088,9.514-19.957-0.251
			c-0.607-4.637-2.801-5.114-4.702-5.54c-4.166-0.933-8.535,4.891-9.669,12.502c-1.134,7.61,1.356,14.353,5.563,15.06
			c2.759,0.463,5.765-0.749,7.693-4.5C345.916,155.023,364.684,156.2,363.116,167.04z"/>
		<path fill="#FFFFFF" d="M413.625,168.763c-3.416,12.903-13.156,19.962-24.418,19.553c-13.787-0.502-24.633-15.11-24.222-32.628
			s11.921-31.312,25.709-30.811c11.66,0.424,20.121,6.862,22.483,20.465c0,0,4.852,11.028-14.909,13.388
			c-3.33,0.397-12.624,0.716-19.313,0.585c0.616,4.57,2.81,7.89,5.645,8.982c0.64,0.246,4.612,1.202,7.693-2.432
			C396.427,156.747,415.192,157.923,413.625,168.763z M381.203,146.248l12.153-0.344c-0.675-4.291-2.799-4.754-4.649-5.169
			C385.968,140.121,383.141,142.431,381.203,146.248z"/>
		<path fill="#FFFFFF" d="M445.329,152.664c-3.689-3.967-1.41-15.008-5.773-14.028c-2.645,0.594-7.218,1.102-4.446,19.488
			c1.016,5.868,2.213,11.575,2.276,16.86c0.146,12.404-14.392,14.207-18.435,6.211c-2.762-5.462-3.229-15.112-1.577-25.379
			c0.339-9.755,1.231-21.497,2.247-25.524c1.311-5.195,7.701-6.418,9.979-1.745c8.766-5.581,22.229-3.249,27.45,7.963
			C461.788,145.841,450.342,158.125,445.329,152.664z"/>
		<path fill="#F7CE58" d="M454.653,175.655c0-5.246,4.252-9.498,9.498-9.498c5.245,0,9.498,4.252,9.498,9.498
			c0,5.245-4.253,9.498-9.498,9.498C458.905,185.152,454.653,180.9,454.653,175.655z"/>
	</g>
</g>
</svg>
